<svg xmlns="http://www.w3.org/2000/svg" viewBox="0 0 1000 1000" width="24" height="24">
  <path fill="#168DE2" fill-rule="evenodd" clip-rule="evenodd" d="M508.172 871.04c-74.648 0-109.338-10.897-169.638-54.487-38.141 49.039-158.922 87.362-164.189 21.795 0-49.22-10.898-90.812-23.248-136.219-14.712-55.94-31.421-118.238-31.421-208.505 0-215.589 176.903-377.78 386.498-377.78 209.777 0 374.147 170.183 374.147 379.778.705 206.353-165.797 374.317-372.149 375.418ZM511.26 302.19c-102.073-5.267-181.625 65.385-199.243 176.176-14.53 91.721 11.261 203.42 33.237 209.232 10.534 2.543 37.051-18.889 53.579-35.417 27.33 18.88 59.155 30.219 92.265 32.874 105.765 5.087 196.137-75.432 203.238-181.08 4.134-105.872-77.299-195.545-183.078-201.604l.002-.181Z"/>
</svg>
