<svg xmlns="http://www.w3.org/2000/svg" viewBox="0 0 48 48" fill="none">
  <!-- Outer flame -->
  <path d="M24 4C24 4 32 14 32 24a8 8 0 0 1-16 0C16 18 20 14 20 10C18 14 16 16 14 20c-2 4-2 8 0 12a12 12 0 0 0 20 0c3-5 3-11 0-16C32 12 28 6 24 4Z"
        stroke="#f59e0b" stroke-width="1.5" stroke-linejoin="round" fill="#f59e0b" fill-opacity="0.2"/>
  <!-- Inner flame -->
  <path d="M24 18C24 18 28 23 27 27a3 3 0 0 1-6 0c0-3 2-6 3-9Z"
        stroke="#f59e0b" stroke-width="1.5" stroke-linejoin="round" fill="#f59e0b" fill-opacity="0.4"/>
</svg>
